<svg xmlns="http://www.w3.org/2000/svg" viewBox="0 0 1200 240" preserveAspectRatio="xMidYMid slice" role="img" aria-label="Flat illustration of a calm natural landscape with rolling hills, trees, and a rising sun in deep purple tones.">
  <title>Calm natural landscape in deep purple tones</title>
  <rect width="1200" height="240" fill="#EEEBF8"/>
  <circle cx="980" cy="86" r="56" fill="#DCDAF2"/>
  <circle cx="980" cy="86" r="34" fill="none" stroke="#534AB7" stroke-width="4"/>
  <circle cx="980" cy="86" r="10" fill="#534AB7"/>
  <path d="M0 168 Q300 120 600 162 T1200 150 V240 H0 Z" fill="#CFE3D6"/>
  <path d="M0 196 Q360 156 720 192 T1200 188 V240 H0 Z" fill="#9CCBB0"/>
  <rect y="214" width="1200" height="26" fill="#7FB89A"/>
  <g>
    <rect x="150" y="150" width="11" height="52" rx="5" fill="#7A5638"/>
    <circle cx="155" cy="138" r="30" fill="#3E7D58"/>
    <circle cx="133" cy="152" r="20" fill="#4E8E66"/>
    <circle cx="177" cy="152" r="20" fill="#4E8E66"/>
  </g>
  <g>
    <rect x="320" y="162" width="9" height="42" rx="4" fill="#7A5638"/>
    <circle cx="324" cy="150" r="22" fill="#4E8E66"/>
  </g>
  <g>
    <rect x="1040" y="158" width="10" height="46" rx="5" fill="#7A5638"/>
    <circle cx="1045" cy="146" r="26" fill="#3E7D58"/>
    <circle cx="1025" cy="160" r="17" fill="#4E8E66"/>
    <circle cx="1065" cy="160" r="17" fill="#4E8E66"/>
  </g>
</svg>
